<mxfile host="app.diagrams.net" modified="2021-12-08T13:47:14.303Z" agent="5.0 (Windows NT 10.0; Win64; x64) AppleWebKit/537.36 (KHTML, like Gecko) Chrome/96.0.4664.45 Safari/537.36" etag="nYgyNE0LGFHnmGMYGS3j" version="15.9.2" type="github">
  <diagram name="Page-1" id="5f0bae14-7c28-e335-631c-24af17079c00">
    <mxGraphModel dx="1447" dy="820" grid="1" gridSize="10" guides="1" tooltips="1" connect="1" arrows="1" fold="1" page="1" pageScale="1" pageWidth="1100" pageHeight="850" background="none" math="0" shadow="0">
      <root>
        <mxCell id="0" />
        <mxCell id="1" parent="0" />
        <mxCell id="XKKe5Pg7mYEhiPLVIWBd-22" value="" style="ellipse;shape=cloud;whiteSpace=wrap;html=1;" vertex="1" parent="1">
          <mxGeometry x="220" y="170" width="540" height="430" as="geometry" />
        </mxCell>
        <mxCell id="XKKe5Pg7mYEhiPLVIWBd-29" style="edgeStyle=orthogonalEdgeStyle;rounded=0;orthogonalLoop=1;jettySize=auto;html=1;exitX=1;exitY=0.5;exitDx=0;exitDy=0;" edge="1" parent="1" source="XKKe5Pg7mYEhiPLVIWBd-1">
          <mxGeometry relative="1" as="geometry">
            <mxPoint x="280" y="395" as="targetPoint" />
            <Array as="points">
              <mxPoint x="260" y="395" />
              <mxPoint x="260" y="395" />
            </Array>
          </mxGeometry>
        </mxCell>
        <mxCell id="XKKe5Pg7mYEhiPLVIWBd-1" value="HTTP Requests" style="rounded=0;whiteSpace=wrap;html=1;" vertex="1" parent="1">
          <mxGeometry x="40" y="365" width="120" height="60" as="geometry" />
        </mxCell>
        <mxCell id="XKKe5Pg7mYEhiPLVIWBd-6" value="Video Frames" style="text;html=1;strokeColor=none;fillColor=none;align=center;verticalAlign=middle;whiteSpace=wrap;rounded=0;" vertex="1" parent="1">
          <mxGeometry x="410" y="160" width="60" height="30" as="geometry" />
        </mxCell>
        <mxCell id="XKKe5Pg7mYEhiPLVIWBd-7" value="Computer Vision Models" style="swimlane;fontStyle=0;childLayout=stackLayout;horizontal=1;startSize=30;horizontalStack=0;resizeParent=1;resizeParentMax=0;resizeLast=0;collapsible=1;marginBottom=0;" vertex="1" parent="1">
          <mxGeometry x="400" y="10" width="200" height="120" as="geometry" />
        </mxCell>
        <mxCell id="XKKe5Pg7mYEhiPLVIWBd-8" value="Object Detection Models" style="text;strokeColor=none;fillColor=none;align=left;verticalAlign=middle;spacingLeft=4;spacingRight=4;overflow=hidden;points=[[0,0.5],[1,0.5]];portConstraint=eastwest;rotatable=0;" vertex="1" parent="XKKe5Pg7mYEhiPLVIWBd-7">
          <mxGeometry y="30" width="200" height="30" as="geometry" />
        </mxCell>
        <mxCell id="XKKe5Pg7mYEhiPLVIWBd-9" value="Face Recognitions" style="text;strokeColor=none;fillColor=none;align=left;verticalAlign=middle;spacingLeft=4;spacingRight=4;overflow=hidden;points=[[0,0.5],[1,0.5]];portConstraint=eastwest;rotatable=0;" vertex="1" parent="XKKe5Pg7mYEhiPLVIWBd-7">
          <mxGeometry y="60" width="200" height="30" as="geometry" />
        </mxCell>
        <mxCell id="XKKe5Pg7mYEhiPLVIWBd-10" value="Tracking algorithms" style="text;strokeColor=none;fillColor=none;align=left;verticalAlign=middle;spacingLeft=4;spacingRight=4;overflow=hidden;points=[[0,0.5],[1,0.5]];portConstraint=eastwest;rotatable=0;" vertex="1" parent="XKKe5Pg7mYEhiPLVIWBd-7">
          <mxGeometry y="90" width="200" height="30" as="geometry" />
        </mxCell>
        <mxCell id="XKKe5Pg7mYEhiPLVIWBd-14" value="Dealed Frames" style="text;html=1;strokeColor=none;fillColor=none;align=center;verticalAlign=middle;whiteSpace=wrap;rounded=0;" vertex="1" parent="1">
          <mxGeometry x="530" y="160" width="60" height="30" as="geometry" />
        </mxCell>
        <mxCell id="XKKe5Pg7mYEhiPLVIWBd-28" style="edgeStyle=orthogonalEdgeStyle;rounded=0;orthogonalLoop=1;jettySize=auto;html=1;exitX=0;exitY=0.5;exitDx=0;exitDy=0;entryX=0.904;entryY=0.523;entryDx=0;entryDy=0;entryPerimeter=0;" edge="1" parent="1" source="XKKe5Pg7mYEhiPLVIWBd-15" target="XKKe5Pg7mYEhiPLVIWBd-22">
          <mxGeometry relative="1" as="geometry" />
        </mxCell>
        <mxCell id="XKKe5Pg7mYEhiPLVIWBd-15" value="Cameras" style="rounded=0;whiteSpace=wrap;html=1;" vertex="1" parent="1">
          <mxGeometry x="830" y="365" width="120" height="60" as="geometry" />
        </mxCell>
        <mxCell id="XKKe5Pg7mYEhiPLVIWBd-17" value="Backend" style="swimlane;" vertex="1" parent="1">
          <mxGeometry x="330" y="290" width="140" height="110" as="geometry" />
        </mxCell>
        <mxCell id="XKKe5Pg7mYEhiPLVIWBd-24" value="Django Web Service" style="text;html=1;strokeColor=none;fillColor=none;align=center;verticalAlign=middle;whiteSpace=wrap;rounded=0;" vertex="1" parent="XKKe5Pg7mYEhiPLVIWBd-17">
          <mxGeometry x="-15" y="20" width="170" height="100" as="geometry" />
        </mxCell>
        <mxCell id="XKKe5Pg7mYEhiPLVIWBd-20" value="Video Stream" style="text;html=1;strokeColor=none;fillColor=none;align=center;verticalAlign=middle;whiteSpace=wrap;rounded=0;" vertex="1" parent="1">
          <mxGeometry x="740" y="360" width="60" height="30" as="geometry" />
        </mxCell>
        <mxCell id="XKKe5Pg7mYEhiPLVIWBd-26" value="Communication" style="swimlane;" vertex="1" parent="1">
          <mxGeometry x="510" y="370" width="150" height="110" as="geometry" />
        </mxCell>
        <mxCell id="XKKe5Pg7mYEhiPLVIWBd-27" value="Socket IO" style="text;html=1;strokeColor=none;fillColor=none;align=center;verticalAlign=middle;whiteSpace=wrap;rounded=0;" vertex="1" parent="1">
          <mxGeometry x="560" y="425" width="60" height="30" as="geometry" />
        </mxCell>
        <mxCell id="XKKe5Pg7mYEhiPLVIWBd-30" value="" style="endArrow=classic;html=1;rounded=0;exitX=0.462;exitY=0.093;exitDx=0;exitDy=0;exitPerimeter=0;entryX=0.352;entryY=1.056;entryDx=0;entryDy=0;entryPerimeter=0;" edge="1" parent="1" source="XKKe5Pg7mYEhiPLVIWBd-22" target="XKKe5Pg7mYEhiPLVIWBd-10">
          <mxGeometry width="50" height="50" relative="1" as="geometry">
            <mxPoint x="510" y="220" as="sourcePoint" />
            <mxPoint x="469" y="130" as="targetPoint" />
          </mxGeometry>
        </mxCell>
        <mxCell id="XKKe5Pg7mYEhiPLVIWBd-31" value="" style="endArrow=classic;html=1;rounded=0;exitX=0.624;exitY=1.131;exitDx=0;exitDy=0;exitPerimeter=0;entryX=0.565;entryY=0.13;entryDx=0;entryDy=0;entryPerimeter=0;" edge="1" parent="1" source="XKKe5Pg7mYEhiPLVIWBd-10" target="XKKe5Pg7mYEhiPLVIWBd-22">
          <mxGeometry width="50" height="50" relative="1" as="geometry">
            <mxPoint x="510" y="220" as="sourcePoint" />
            <mxPoint x="560" y="170" as="targetPoint" />
          </mxGeometry>
        </mxCell>
        <mxCell id="XKKe5Pg7mYEhiPLVIWBd-32" value="Users" style="swimlane;" vertex="1" parent="1">
          <mxGeometry x="10" y="280" width="200" height="420" as="geometry" />
        </mxCell>
        <mxCell id="XKKe5Pg7mYEhiPLVIWBd-39" value="Login Messages" style="rounded=0;whiteSpace=wrap;html=1;" vertex="1" parent="XKKe5Pg7mYEhiPLVIWBd-32">
          <mxGeometry x="30" y="190" width="120" height="60" as="geometry" />
        </mxCell>
        <mxCell id="XKKe5Pg7mYEhiPLVIWBd-33" value="Frontend" style="swimlane;" vertex="1" parent="1">
          <mxGeometry x="400" y="660" width="200" height="110" as="geometry" />
        </mxCell>
        <mxCell id="XKKe5Pg7mYEhiPLVIWBd-36" value="Frontend Framework" style="text;html=1;strokeColor=none;fillColor=none;align=center;verticalAlign=middle;whiteSpace=wrap;rounded=0;" vertex="1" parent="XKKe5Pg7mYEhiPLVIWBd-33">
          <mxGeometry x="40" y="50" width="120" height="30" as="geometry" />
        </mxCell>
        <mxCell id="XKKe5Pg7mYEhiPLVIWBd-34" value="" style="endArrow=classic;html=1;rounded=0;exitX=0.504;exitY=0.95;exitDx=0;exitDy=0;exitPerimeter=0;entryX=0.46;entryY=-0.034;entryDx=0;entryDy=0;entryPerimeter=0;" edge="1" parent="1" source="XKKe5Pg7mYEhiPLVIWBd-22" target="XKKe5Pg7mYEhiPLVIWBd-33">
          <mxGeometry width="50" height="50" relative="1" as="geometry">
            <mxPoint x="430" y="610" as="sourcePoint" />
            <mxPoint x="480" y="560" as="targetPoint" />
          </mxGeometry>
        </mxCell>
        <mxCell id="XKKe5Pg7mYEhiPLVIWBd-35" value="Output" style="text;html=1;strokeColor=none;fillColor=none;align=center;verticalAlign=middle;whiteSpace=wrap;rounded=0;" vertex="1" parent="1">
          <mxGeometry x="500" y="600" width="60" height="30" as="geometry" />
        </mxCell>
        <mxCell id="XKKe5Pg7mYEhiPLVIWBd-37" value="" style="endArrow=classic;html=1;rounded=0;exitX=0;exitY=0.5;exitDx=0;exitDy=0;" edge="1" parent="1" source="XKKe5Pg7mYEhiPLVIWBd-33">
          <mxGeometry width="50" height="50" relative="1" as="geometry">
            <mxPoint x="430" y="610" as="sourcePoint" />
            <mxPoint x="210" y="670" as="targetPoint" />
            <Array as="points">
              <mxPoint x="310" y="715" />
              <mxPoint x="310" y="670" />
            </Array>
          </mxGeometry>
        </mxCell>
        <mxCell id="XKKe5Pg7mYEhiPLVIWBd-38" value="Webpages" style="text;html=1;strokeColor=none;fillColor=none;align=center;verticalAlign=middle;whiteSpace=wrap;rounded=0;" vertex="1" parent="1">
          <mxGeometry x="280" y="630" width="60" height="30" as="geometry" />
        </mxCell>
      </root>
    </mxGraphModel>
  </diagram>
</mxfile>
